<?xml version="1.0" encoding="UTF-8"?>
<svg id="Layer_1" data-name="Layer 1" xmlns="http://www.w3.org/2000/svg" viewBox="0 0 808.43 321.69">
  <defs>
    <style>
      .cls-1 {
        fill: #fff;
      }

      .cls-2 {
        fill: #f20f0f;
      }
    </style>
  </defs>
  <path class="cls-2" d="m639.56,266.4h-342.37s-21.84-115.37-21.84-115.37h258.69s-15.26,75.24,105.52,115.37"/>
  <path d="m646.78,39.49c-62.66,0-113.46,50.8-113.46,113.46s50.8,113.46,113.46,113.46,113.46-50.8,113.46-113.46-50.8-113.46-113.46-113.46Zm-96.86,113.46c0-13.25,2.67-25.88,7.48-37.38.46.16.85.43.9,1.56.07,1.87-.49,2.18.15,3.89s.94,1.69,1.26,2.55c.32.85-.05,2.16.11,2.88.16.72,1.86-.22.16.72-1.69.93-3.64,2.88-4.18,3.62-.55.74-.09,1.3-1.19,2.79-1.1,1.48-.93,5.8-.42,7.8.51,2,2.62,8.12,2.64,8.69.02.57,1.18,4.42,1.91,4.68.73.26.77-2.34.77-2.34,0,0-.94-1.98-1.26-2.83-.32-.85-.41-3.16-.41-3.16,0,0,.27-.59.71-.32.44.27,1.57,3.25,1.57,3.25,0,0,.86,1.41,1.59,2.82.73,1.41,1.27.28,1.49,2.42.23,2.13.72,3.55,1.04,4.55.33,1,.31.56,1.64,1.38,1.33.81,3.1,1.75,3.85,2.59.75.84,2.24,2.07,3.54,2.02,1.3-.05,1.73.08,2.45-.1.72-.17,1.69-1.09,2.3-.02.62,1.06,4.15,2.94,4.15,2.94,0,0-.31-.56.72-.03,1.03.54.56-.45,1.03.54.47.99,1.39,2.25,1.55,2.82.17.57,1.21,1.39,1.21,1.39,0,0-1.28.34.9.97,2.19.64,3.2.6,3.63.58.43-.02,2.84-.98,3.02-.12.18.86,2.08,5.25.26,6.76-1.82,1.51-1.79,2.09-2.75,3.42-.96,1.33-1.77,2.66-1.59,3.67.18,1,.35,1.57.69,3,.34,1.43,4.68,9.04,5.28,9.74.6.7,4.72,2.84,5.31,3.25.59.41,4.33,3.72,4.13,6.18-.19,2.46-.33,9.24.54,13.39.87,4.15,2.08,9.43,2.87,11.28.73,1.69,3.16,7.25,4.26,9.04-36.98-13.64-63.35-49.19-63.35-90.9Zm9-40.78c.36-.77.73-1.54,1.1-2.3-.39.75-.73,1.53-1.1,2.3Zm87.86,137.65c-10.08,0-19.81-1.54-28.95-4.4.23-.38.36-.96.44-2.16.18-2.75.11-.72-.19-4.75-.3-4.02.46-4.05-.01-4.61-.48-.56-2.35-.63-.54-2.29,1.81-1.66-.3-.42,1.81-1.66,2.11-1.24,1.18.68,2.11-1.24.93-1.91,1.88.07.93-1.91-.94-1.98-.75-.84-.94-1.98-.19-1.15-1.19-.82-.19-1.15,1-.33.27-.16,1.35-.34,1.08-.19,3.1-.12,3.64-1.15.54-1.03-.3,3.33,1.2-2.5,1.5-5.83-.88-4,1.48-6.54,2.35-2.54,3.91-3.32,4.32-3.77.41-.45.15.28,1.11-1.05.96-1.33,1.05-2.78,1.56-4.39.51-1.61.87-3.5,1.12-4.51.25-1.02-.9-.97,1.32-3.08,2.22-2.1,2.9-3.28,2.87-4-.03-.72.92-2.34-.11-2.88-1.03-.54,1.59.23-3.27-2.47-4.86-2.69-3.99-2.58-4.86-2.69-.87-.11-2.17-.06-4.32.02-2.16.08-3.6.14-4.32.17-.11,0-.18.02-.23.05.02-.13,0-.36-.09-.76-.34-1.43-.37-2-.57-3.44-.2-1.43-1.14-3.27-1.14-3.27,0,0-2.35-1.06-3.08-1.32-.73-.26-1.6-.37-2.77-.76-1.17-.39-3.49-.73-3.49-.73l-2.76-.61c-1.06-1.26-1.51-1.82-1.95-1.94q-.44-.13-2.04-.5c-1.6-.37-3.93-.86-3.93-.86,0,0-1.9,3.1-1.8,1.94.1-1.16.07-1.88.07-1.88l-.03-.86-2,.51s-2.97,1.41-3.69,1.44c-.72.03-1.72.36-1.72.36,0,0,.27-.44-.89-.54-1.16-.1-1.4.63-2.03-.5-.63-1.13-1.02.04-1.09-1.83-.07-1.87.22-1.74-.54-2.72-.76-.98,1.43-.34-.76-.98-2.19-.63-3.02.26-3.36-1.02-.34-1.28-.64-1.56-.68-2.71-.05-1.15.82-1.19.19-2.46-.63-1.27.1-1.16-.63-1.27-.73-.12-2.46-.34-2.87.26-.41.59-4.63-.4-5.1-1.39-.47-.99-1.05-1.11-.72-3.72.33-2.61.16-3.32,1.99-4.55,1.83-1.22,3.1-1.71,3.96-1.88.86-.18,5.74-.8,5.74-.8,0,0,1.78,1.23,2.23,1.64.45.42,1.67,2.24,1.7,2.82.02.58-.07,2.02.51,2,.58-.02-.79,1.9.58-.02,1.37-1.93,1.33-2.93,1.28-4.09-.04-1.15-.77-1.27.33-2.61,1.1-1.34.67-1.32,2.64-2.55,1.97-1.23,3.12-1.42,3.64-2.74.52-1.32.06-2.17.89-3.06.83-.9,3.25-2.43,3.93-3.04.69-.6-.45-.13,3.38-1.72,3.83-1.59,5.56-1.51,5.98-1.96.42-.45,3.24-1.86,3.02-3.87-.22-2.01-2.21-1.36-2.38-1.93-.17-.57-1.16-.1-.34-1.28.82-1.19,3.11-1.71,4.11-1.75,1.01-.04,2.3-.09,3.29-.56.99-.47,2.54-1.4,2.49-2.69-.05-1.3.23-1.59-.09-2.45-.32-.85.37-1.6-1.52-2.1-1.89-.5-1.39,1.21-3.35-.88-1.96-2.09-3.12-2.47-3.56-2.46-.43.02-2.73.11-2.73.11,0,0-1.19-.82-2.79,2.41-1.6,3.23-2.76,3.13-3.32,3.73-.55.6-1.95,1.66-2.82,1.7-.86.03-1.68,1.22-2.6-.04-.91-1.26-.73-.12-.91-1.26-.19-1.15.63-2.33-.99-3.13-1.62-.8-1.08,1.77-1.62-.8-.53-2.57-1.12-2.84.59-3.48,1.71-.64,3.02-.84,5.15-1.35,2.13-.51,2.84-.69,5.4-1.65,2.56-.96,3.99-1.31,4.38-2.33.39-1.02,1.44.09.39-1.02-1.05-1.11-.49-1.42-2.79-1.33-2.3.09-3.63-.29-5.61.22-1.99.51-4.14,1.17-5.41,1.8-1.27.63-1.68,1.36-3.12,1.42-1.44.06-1.43.34-2.89-.18-1.46-.52-2.34-.92-3.07-1.03-.73-.12-2.73-.18-2.75-.47-.02-.29-1.62-.61-2.64-.95-1.02-.34-2.63-.86-3.35-.83-.72.03-2.17-.2-2.88.11-.68.3-11.43,1.65-15.05,1.24-1.14,1.85-2.21,3.74-3.23,5.67,16.02-31.39,48.64-52.9,86.3-52.9,26.81,0,51.08,10.9,68.62,28.5.05.41.14.87.38,1.39.63,1.4,2.32,2.49,1.88,3.08-.44.59,2.17,1.07-.44.59-2.61-.48-2.91-.61-3.78-.86-.87-.25-1.02-.39-1.74-.36-.72.03-1.87.07-3.02.12-1.15.04-2.58.39-5.58,1.08-3,.69-7.04.71-7.12,2.15-.09,1.45,2.38,1.78-.35,2.18-2.72.39-4.03.16-4.05-.27-.02-.43-1.27.77-.04-1.15,1.22-1.92,2.03-3.39,2.03-3.39,0,0,4.31-.31-.9-.97-5.22-.66-7.42-1.7-7.82-.98-.4.72-1.72.34-2.99.97-1.27.63-1.98,1.09-4.11,1.89-2.13.8-7.44,1.44-7.7,2.17-.26.73-1.31,3.51-1.43,4.09-.12.58-1.41,4.52-1.41,4.52l3.92.71s.29.13.74.55c.45.42,2.27,2.65,2.69,2.35.42-.3.98-.76,1.11-1.2.13-.44.68-1.04,1.37-1.93.69-.89,1.52-1.64,1.19-2.79-.33-1.14-.94-1.98-.81-2.42.13-.44,2.08-2.39,3.06-3,.98-.61,1.26,2.98,1.26,2.98l.21,1.58s.91,1.12,1.34,1.1c.43-.02-.58-.12.43-.02,1.01.1,1.75.51,1.48,1.1-.26.59-1.5,2.22-2.33,3.12-.83.9-1.08,1.48-1.93,2.09-.85.61.76,1.27-1.98,1.23-2.74-.04-3.2-.16-3.89-.14-.7.03-1.74-.08-1.74-.08,0,0-.87-.11-1.18-.68-.31-.56.43-.02-.31-.56-.74-.55-.79-1.7-2.18-.49-1.4,1.21-2.06,2.53-2.63,2.84-.56.31-1.3.05-1.7.64-.41.59.58-.02-.95,1.48-1.53,1.5-.11.87-2.53,1.68l-2.42.82-.67,1.32.33,1.14-.09,1.45s-.53,1.17-1.09,1.63l-.56.45-3.12,1.42s-1.41.92-1.38,1.64c.03.72.08,2.01.12,3.02.04,1.01.63,1.27.78,1.55.16.28,1.76.65,1.76.65,0,0,.88.4,3.02-.12,2.14-.52,2.43-.53,3.66-2.16,1.23-1.63,1.81-1.51,2.59-3.7.78-2.19-.06-1.44.78-2.19.83-.75,2.4-1.25,3.4-1.43,1-.18,1.37-1.93,2.88-.11,1.51,1.82,2.17,2.65,3.04,3.34.87.69,2.23,2.36,2.23,2.36l.06,1.58s.18.86,1.01.1c.84-.75.81-1.47.81-1.47,0,0,.22,1.87-.02-.43-.23-2.3-1.26-2.83-1.26-2.83,0,0-2.18-.49-2.21-1.36-.04-.86.34-2.32,1.06-2.35.72-.03,1.76,1.09,2.29,1.5.53.41.83.83,1.15,1.54.32.71,1.24,1.83,1.55,2.53.31.71,1.09,2.26,1.09,2.26,0,0,.07,1.73,1.45.23,1.38-1.5,1.52-1.79,2.08-2.1.56-.31,1.24-1.59,1.68-1.34.44.25,1.63,1.26,2.16-.08.53-1.34.65-1.92,1.04-2.8.4-.88.64-2.04,1.06-2.35.42-.3-.28.16.42-.3.7-.46,1.15-.19,1.61.51.46.7.61.84,1.05.97.44.13-.68,1.03.44.13,1.12-.91,1.1-1.46,1.65-2,.56-.54,1.24-1.57,1.24-1.57,0,0,.43-.02,1.38,2.11.95,2.13-.08,1.59.95,2.13,1.03.54,2.52,1.66,2.52,1.66,0,0,.44.25.03.7-.42.45-.25,1.02-1.98,1.09-1.73.07-2.88.11-3.6.14-.72.03-.43.16-1.44-.09-1.02-.25-2.18-.35-3.04-.17-.86.18-1.71.36-2.13.8-.42.45-1.14.33-1.67,1.51-.53,1.17-1.26,1.06-.37,1.74.89.69.74.5,1.76.84,1.02.35,3.21,1.06,4.06.63.85-.43,2.76.44,3.17-.12.41-.56,1.28-.51,1.29-.05.02.46.06,1.47.07,1.9.02.43-.04,2.6-.31,3.04-.27.44-.82,1.19-1.23,1.63-.34.37-.88.56-1.05.93-.23-.08-.49-.16-.8-.22-2.91-.61-3.33-.45-4.49-.55-1.16-.1-3.02.12-4.63-.4-1.61-.51-4,1.02-4,1.02,0,0,.49,2.14-2.59.25-3.08-1.9-6.89-3.05-6.89-3.05,0,0,.66-1.61.2-2.17-.45-.56-.61-.99-1.91-.93-1.3.05-5.21-.52-6.33.25-1.12.76-1.25,1.2-2.53,1.54-1.28.34-3.73.43-4.16.59-.42.16-1.88-.21-2.44.38-.55.6.27,3.3.27,3.3-1.27.63-2.71.83-3.53,1.87-.82,1.04-1.1,1.48-2.04,3.11-.95,1.62-.37,1.46-1.33,2.79-.96,1.33-1.35,2.22-2,4.11-.65,1.9-.59,3.34-.56,4.2.03.86-.31,3.04.17,4.46.49,1.42,3.15,6.79,4.1,9.07.95,2.27.3,3.88,2.88,3.64,2.59-.24,2.51,1.65,5.04-.19,2.52-1.84,2.37-2.12,3.94-2.61,1.57-.49,3.01-.55,4.01-.59,1.01-.04,2.11-1.24,3.05.6.94,1.84-1.1,1.48.94,1.84,2.03.35.99-.47,2.03.35,1.04.82,2.21,1.21,2.25,2.22.04,1.01.25,2.87.15,3.74-.11.87,1.1,2.26,1.42,3.26.33,1,2.61,4.08,2.81,5.51.2,1.44.84,3.57.21,5.47-.62,1.9-2.05,3.54-1.23,5.52.82,1.99,1.22,2.4,1.94,3.82.72,1.41,1.55,4.26,1.77,6.13.22,1.87.93,1.69,2.05,4.53,1.12,2.84,1.34,4.7,1.93,5.11.59.41,1.56-.78,3.6-.14,2.04.64,2.1,2.14,4.18-.06,2.08-2.2,1.94-1.91,3.59-3.99,1.65-2.08.81-1.33,2.17-3.4,1.36-2.07,2.06-2.53,2.76-3.28.69-.75,1.28-.48,1.22-1.92-.06-1.44-.3-.42-.1-2.59.2-2.17-.94-1.84.72-3.63,1.66-1.79.41-.59,1.66-1.79,1.25-1.2,1.12-.76,1.52-1.79.39-1.02-.71-3.57-.16-4.17.55-.6-.57-5.46-.14-6.48.43-1.03-.71-.55.89-3.78,1.6-3.23,3.69-5.33,5.08-6.54,1.39-1.21,1.81-1.51,3.19-3.15,1.38-1.64,2.02-3.54,2.43-4.28.4-.73,1.01-3.64,1.01-3.64,0,0,5.27-1.5-.03-.72-4.47.66-7.64.25-8.53.1-.16-.19-.57-.6-1.47-1.44-2.54-2.35-3.51-4.91-3.95-5.18-.44-.27-4.39-5.31-5.04-7.16-.65-1.85-1.78-4.98-2.54-6.1-.11-.16-.18-.32-.23-.49.53.31,1.4.81,1.4.81,0,0,7.99,8.92,8.38,11.64.39,2.72.66,5.89,1.67,5.99,1.01.11,2.17.21,4.3-.74,2.13-.95,5.37-2.8,7.02-4.74,1.65-1.94,1.97-1.23,2.62-3.13.65-1.9,1.7-.79.76-2.77-.94-1.98-1.67-2.24-1.84-2.81-.17-.57-1.61-.51-2.04-.5-.43.02.22.57-1.12.04-1.35-.52-1.89.22-2.66-.91-.76-1.12-1.95-1.94-2.12-2.51-.17-.57-.22-1.87-.22-1.87,0,0-1.22-1.68,1-.33,2.21,1.36-1,.18,2.21,1.36,3.22,1.17,4.67,1.55,4.67,1.55,0,0,2.46.19,2.89.18.43-.02.85-.32,2.3-.09,1.45.23,2.89.18,3.47.3.58.12,3.2.74,3.2.74,0,0,.6.55,1.34,1.1.74.55,3.08,1.47,3.52,1.59.44.13,2.78.9,2.78.9,0,0-.33,2.75.13,3.45.17.26.73,1.54,1.36,3.07.1,1.79.16,3.6.16,5.41,0,53.5-43.37,96.86-96.86,96.86Z"/>
  <g>
    <path d="m76.94,119.07v-12.59h13.22v-6.5c0-14.27,9.79-21.61,20.28-21.61,7.9,0,15.11,4.97,18.33,12.59l-10.28,4.69c-1.26-3.43-4.34-5.18-8.04-5.18-5.74,0-8.04,3.92-8.04,8.81v7.2h29.17v12.59h-41.41c0,6.23,1.96,8.32,6.71,8.32h10.07v12.59h-12.24c-11.96,0-17.77-9.23-17.77-20.91Z"/>
    <path d="m130.17,127.39c9.86,0,11.75-1.89,11.75-12.24v-35.67h10.98v36.37c0,16.86-4.41,24.13-22.66,24.13l-.07-12.59Z"/>
    <path d="m159.9,63.11h10.98v43.37h7.69v12.59h-18.68v-55.96Z"/>
    <path d="m264.47,106.48v12.59h-87.29v-12.59h13.92v-27h10.98v27h13.92v-20h10.98v20h13.92v-27h10.98v27h12.59Zm-56.59-37.28c0-3.01,2.52-5.39,5.95-5.39s5.95,2.38,5.95,5.39-2.52,5.39-5.95,5.39-5.95-2.38-5.95-5.39Zm7.41-14.27c0-3.01,2.52-5.39,5.95-5.39s5.95,2.38,5.95,5.39-2.52,5.39-5.95,5.39-5.95-2.38-5.95-5.39Zm13.36,8.88c3.43,0,5.95,2.38,5.95,5.39s-2.52,5.39-5.95,5.39-5.95-2.38-5.95-5.39,2.52-5.39,5.95-5.39Z"/>
    <path d="m263.07,106.48h7.69v-43.37h10.98v55.96h-18.68v-12.59Z"/>
    <path d="m288.74,63.11h10.98v55.96h-10.98v-55.96Z"/>
    <path d="m373.65,106.48v12.59h-35.46c-12.45,0-17.49-10.28-17.49-19.1,0-11.47,9.44-20.49,20.07-20.49s20.28,7.34,20.28,20.49v6.5h12.59Zm-46.23-37.28c0-3.01,2.52-5.39,5.95-5.39s5.95,2.38,5.95,5.39-2.52,5.39-5.95,5.39-5.95-2.38-5.95-5.39Zm21.4,30.08c0-4.9-2.31-8.81-8.04-8.81-4.83,0-8.6,2.94-8.6,8.81,0,3.22,2.45,7.2,7.13,7.2h9.51v-7.2Zm-6.58-30.08c0-3.01,2.52-5.39,5.95-5.39s5.95,2.38,5.95,5.39-2.52,5.39-5.95,5.39-5.95-2.38-5.95-5.39Z"/>
    <path d="m372.25,106.48h7.69v-43.37h10.98v55.96h-18.68v-12.59Z"/>
    <path d="m397.92,63.11h10.98v43.37h7.69v12.59h-18.68v-55.96Z"/>
    <path d="m466.75,98.02v21.05h-51.55v-12.59h40.57v-7.48c0-4.97-3.57-8.53-8.53-8.53h-25.88v-10.98l19.86-19.65h14.83l-19.87,19.65h12.03c10.7,0,18.54,7.83,18.54,18.54Z"/>
    <path d="m487.52,127.67c13.01,0,15.53-3.85,15.53-8.6h-11.82c-12.45,0-17.49-10.28-17.49-19.1,0-11.47,9.44-20.49,20.08-20.49s20.28,7.34,20.28,20.49v19.1c0,12.66-7.34,20.84-26.58,20.84v-12.24Zm14.34-21.19v-7.2c0-4.9-2.31-8.81-8.04-8.81-4.83,0-8.6,2.94-8.6,8.81,0,3.22,2.45,7.2,7.13,7.2h9.51Z"/>
  </g>
  <g>
    <path class="cls-1" d="m366.87,209.25v9.65h-1.07c0,9.7-5.63,15.97-16.08,15.97h-9.22c-10.77,0-16.24-6.22-16.29-14.74l-.05-8.09h8.41v7.61c0,3.16,2.09,5.84,7.93,5.84h9.22c5.68,0,7.61-2.95,7.61-6.59h-12.81v-9.65h22.35Zm-22.45,33.55c0,2.3-1.93,4.13-4.56,4.13s-4.55-1.82-4.55-4.13,1.93-4.13,4.55-4.13,4.56,1.82,4.56,4.13Zm11.36,0c0,2.3-1.93,4.13-4.56,4.13s-4.56-1.82-4.56-4.13,1.93-4.13,4.56-4.13,4.56,1.82,4.56,4.13Z"/>
    <path class="cls-1" d="m365.8,209.25h7.45c-.7-1.66-1.02-3.32-1.02-4.98,0-8.79,7.23-15.7,15.38-15.7s15.54,5.63,15.54,15.7v14.63h-37.35v-9.65Zm11.58-28.56c0-2.3,1.93-4.13,4.55-4.13s4.56,1.82,4.56,4.13-1.93,4.13-4.56,4.13-4.55-1.82-4.55-4.13Zm16.4,28.56v-5.52c0-3.75-1.77-6.75-6.16-6.75-3.7,0-6.59,2.25-6.59,6.75,0,2.47,1.88,5.52,5.47,5.52h7.29Zm-5.04-28.56c0-2.3,1.93-4.13,4.56-4.13s4.56,1.82,4.56,4.13-1.93,4.13-4.56,4.13-4.56-1.82-4.56-4.13Z"/>
    <path class="cls-1" d="m408.51,176.02h8.41v42.87h-8.41v-42.87Z"/>
    <path class="cls-1" d="m441.2,218.9h-9.59c-.43,11.15-4.23,16.02-17.31,16.02l-.05-9.65c7.56,0,9-1.45,9-9.38v-27.33h8.41v20.68h9.54v9.65Z"/>
    <path class="cls-1" d="m486.76,218.9h-46.62v-9.65h7.66v-4.98c0-10.93,7.5-16.56,15.54-16.56,6.06,0,11.58,3.8,14.04,9.65l-7.88,3.59c-.96-2.63-3.32-3.97-6.16-3.97-4.39,0-6.16,3-6.16,6.75v5.52h29.58v9.65Z"/>
    <path class="cls-1" d="m485.69,209.25h5.89v-33.22h8.41v42.87h-14.31v-9.65Z"/>
    <path class="cls-1" d="m505.36,176.02h8.41v42.87h-8.41v-42.87Z"/>
  </g>
</svg>